<?xml version="1.0" encoding="UTF-8"?>
<svg width="199px" height="56px" viewBox="0 0 199 56" version="1.1" xmlns="http://www.w3.org/2000/svg" xmlns:xlink="http://www.w3.org/1999/xlink">
    <!-- Generator: Sketch 53.2 (72643) - https://sketchapp.com -->
    <title>Group</title>
    <desc>Created with Sketch.</desc>
    <g id="Page-2" stroke="none" stroke-width="1" fill="none" fill-rule="evenodd">
        <g id="Artboard-Copy" transform="translate(-62.000000, -80.000000)" fill="#FFFFFF">
            <g id="logo/visionair3d/us/login-register" transform="translate(63.000000, 29.000000)">
                <g id="Group" transform="translate(0.000000, 52.000000)">
                    <g id="NavLogoResized" fill-rule="nonzero" stroke="#FFFFFF">
                        <path d="M0,3.75350213 L3.12262068,3.75350213 L11.4022967,26.5019999 C11.9463897,28.0465032 12.5851076,30.3931903 12.5851076,30.3931903 L12.6679043,30.3931903 C12.6679043,30.3931903 13.2593098,27.9986116 13.8507152,26.5019999 L22.0712507,3.75350213 L25.1938714,3.75350213 L14.0517931,33.7815192 L11.0119691,33.7815192 L0,3.75350213 Z" id="Shape"></path>
                        <polygon id="Shape" points="28.9729521 12.5116738 31.9122371 12.5116738 31.9122371 33.7815192 28.9729521 33.7815192"></polygon>
                        <path d="M38.8900385,29.1218783 C40.5394866,30.7559957 42.7480662,31.6700309 45.0471155,31.6700252 C47.2567581,31.6700252 49.1901954,30.4957639 49.1901954,28.3233806 C49.1901954,23.7202765 38.0614225,24.8005969 38.0614225,17.978139 C38.0614225,14.2087604 41.387395,12.1068328 45.1276754,12.1068328 C47.4727794,11.9812457 49.7680542,12.8282459 51.4919064,14.4553553 L50.2144568,16.6394812 C48.8066864,15.328874 46.9516339,14.633309 45.0471155,14.7019501 C42.9525585,14.7019501 40.9385613,15.6296165 40.9385613,17.978139 C40.9385613,22.675184 52.0673342,21.371754 52.0673342,28.3233806 C52.0673342,31.7639661 49.1556697,34.1946869 45.0010813,34.1946869 C42.1575108,34.2727983 39.4044072,33.1711923 37.3709092,31.1416076 L38.8900385,29.1218783 Z" id="Shape"></path>
                        <polygon id="Shape" points="57.5260063 12.5116738 60.4652913 12.5116738 60.4652913 33.7815192 57.5260063 33.7815192"></polygon>
                        <path d="M77.1582995,12.0971532 C83.3033108,12.1558647 88.2369565,17.1507093 88.1780274,23.2535742 C88.1190983,29.356439 83.0899085,34.2563979 76.9448936,34.1980594 C70.7998788,34.139721 65.8659257,29.1451758 65.9244793,23.0423074 C65.9174154,20.1004299 67.1056683,17.2801279 69.2202201,15.219912 C71.3347719,13.1596961 74.1967828,12.0338104 77.1582995,12.0971532 L77.1582995,12.0971532 Z M77.1582995,31.6361932 C79.4125848,31.6120802 81.56203,30.687027 83.1212435,29.0699308 C84.6804569,27.4528346 85.5179411,25.2800745 85.4445736,23.0423074 C85.4445736,18.4973136 81.7346823,14.8128682 77.1582995,14.8128682 C72.5819167,14.8128682 68.8720254,18.4973136 68.8720254,23.0423074 C68.7986579,25.2800745 69.6361421,27.4528346 71.1953555,29.0699308 C72.754569,30.687027 74.9040142,31.6120802 77.1582995,31.6361932 Z" id="Shape"></path>
                        <path d="M93.637222,12.605017 L96.4750406,12.605017 L96.4750406,15.7567038 C96.4750406,16.6892253 96.3919246,17.4446858 96.3919246,17.4446858 L96.4750406,17.4446858 C97.9657828,14.1162626 101.324691,12.0065553 104.988497,12.097442 C110.248554,12.097442 112.112728,15.0838718 112.112728,20.3602912 L112.112728,33.7815192 L109.227414,33.7815192 L109.227414,21.0685354 C109.227414,17.7397876 108.716844,14.78877 104.608538,14.78877 C100.963731,14.8215671 97.7901396,17.2711428 96.8549996,20.7734337 C96.6144596,21.7062482 96.5026138,22.6672449 96.5225355,23.6300187 L96.5225355,33.7815192 L93.637222,33.7815192 L93.637222,12.605017 Z" id="Shape"></path>
                        <path d="M134.08306,24.2032044 L122.006758,24.2032044 L118.583743,33.7815192 L115.47191,33.7815192 L126.483009,3.75350213 L129.642715,3.75350213 L140.665782,33.7815192 L137.541981,33.7815192 L134.08306,24.2032044 Z M128.026956,6.86645446 C128.026956,6.86645446 127.380653,9.33287054 126.830098,10.745672 L122.820622,21.6410051 L133.149511,21.6410051 L129.223815,10.745672 C128.709165,9.33287054 128.026956,6.86645446 128.026956,6.86645446 Z" id="Shape"></path>
                        <polygon id="Shape" points="144.86476 12.5116738 147.804045 12.5116738 147.804045 33.7815192 144.86476 33.7815192"></polygon>
                        <path d="M154.102513,12.3100508 L156.88873,12.3100508 L156.88873,16.1040616 C156.88873,17.0495722 156.807802,17.8155555 156.807802,17.8155555 L156.88873,17.8155555 C157.882981,14.5720951 160.183633,12.094618 163.443853,12.094618 C163.832598,12.0967213 164.220068,12.140845 164.59996,12.2262714 L164.59996,15.0867401 C164.256211,15.0256539 163.908231,14.9936323 163.559464,14.9909922 C160.634515,14.9909922 158.449473,17.3846899 157.536149,20.5443709 C157.149971,21.9043936 156.959098,23.3158185 156.969657,24.7333419 L156.969657,33.7815192 L154.160319,33.7815192 L154.102513,12.3100508 Z" id="Shape"></path>
                        <ellipse id="Oval" cx="146.334403" cy="5.21319741" rx="1.88954035" ry="1.87675107"></ellipse>
                        <ellipse id="Oval" cx="58.9956488" cy="5.21319741" rx="1.88954035" ry="1.87675107"></ellipse>
                        <ellipse id="Oval" cx="30.4425946" cy="5.21319741" rx="1.88954035" ry="1.87675107"></ellipse>
                    </g>
                    <path d="M174.523546,11.4660348 C175.495508,12.5089975 176.855417,13.123646 178.295628,13.1709322 C180.175976,13.0913613 181.634502,11.5324917 181.553336,9.68909959 C181.47217,7.84570745 179.882048,6.4158478 178.0017,6.49541868 L177.046432,6.49541868 L176.801492,5.90710904 L180.732785,1.40473935 C180.926158,1.17910535 181.134831,0.966511463 181.357383,0.768404428 L181.357383,0.768404428 C181.357383,0.768404428 180.977726,0.768404428 180.267398,0.768404428 L174.511299,0.768404428 L174.511299,0 L182.557591,0 L182.557591,0.588309641 L178.026194,5.72701426 C179.716283,5.72701426 182.655568,6.54344396 182.655568,9.79715646 C182.608651,12.1598131 180.62003,14.0395319 178.209899,13.9993682 C176.552361,13.954791 174.980313,13.2683961 173.837713,12.0903634 L174.523546,11.4660348 Z" id="Shape" stroke="#FFFFFF" stroke-width="0.5" fill-rule="nonzero"></path>
                    <path d="M186.035343,0.0172123998 L190.276557,0.0172123998 C192.100337,-0.120529726 193.891249,0.573499276 195.179744,1.91733598 C196.468238,3.26117268 197.125802,5.12078288 196.980031,7.0086062 C196.980031,11.4621118 194.258586,14 190.241214,14 L186,14 L186.035343,0.0172123998 Z M190.179161,13 C193.66709,13 196,10.8858268 196,7 C196,3.11417323 193.712834,1 190.179161,1 L187,1 L187,13 L190.179161,13 Z" id="Shape" stroke="#FFFFFF" stroke-width="0.5" fill-rule="nonzero"></path>
                    <text id="Stent-Architect" font-family="MuseoSans-300, Museo Sans" font-size="17" font-weight="300">
                        <tspan x="83" y="25">Stent Architect </tspan>
                    </text>
                </g>
            </g>
        </g>
    </g>
</svg>