<svg id="Layer_1" data-name="Layer 1" xmlns="http://www.w3.org/2000/svg" xmlns:xlink="http://www.w3.org/1999/xlink" width="2267" height="455" viewBox="0 0 2267 455"><defs><style>.cls-1{fill:none;}.cls-2{fill:#1b9fc6;}.cls-3{clip-path:url(#clip-path);}.cls-4{clip-path:url(#clip-path-2);}.cls-5{fill:#753bbd;}.cls-6{clip-path:url(#clip-path-3);}.cls-7{clip-path:url(#clip-path-5);}.cls-8{clip-path:url(#clip-path-7);}.cls-9{clip-path:url(#clip-path-9);}.cls-10{clip-path:url(#clip-path-11);}.cls-11{clip-path:url(#clip-path-13);}.cls-12{clip-path:url(#clip-path-15);}.cls-13{clip-path:url(#clip-path-17);}.cls-14{clip-path:url(#clip-path-19);}.cls-15{clip-path:url(#clip-path-21);}.cls-16{clip-path:url(#clip-path-23);}.cls-17{opacity:0.24;fill:url(#radial-gradient);}.cls-18{fill:url(#linear-gradient);}.cls-19{fill:url(#linear-gradient-2);}.cls-20{fill:url(#linear-gradient-3);}.cls-21{clip-path:url(#clip-path-25);}.cls-22{clip-path:url(#clip-path-26);}.cls-23{clip-path:url(#clip-path-27);}</style><clipPath id="clip-path"><path class="cls-1" d="M404,154h15.4675L460.48,268.3939c2.6951,7.7668,5.8589,19.5674,5.8589,19.5674h.41a196.1443,196.1443,0,0,1,5.8589-19.5674L513.3269,154h15.4675L473.6037,305H458.5463Z"/></clipPath><clipPath id="clip-path-2"><rect class="cls-1" width="2320" height="455"/></clipPath><clipPath id="clip-path-3"><rect class="cls-1" x="547.1465" y="198.1951" width="14.6817" height="106.8049"/></clipPath><clipPath id="clip-path-5"><path class="cls-1" d="M595.1092,279.6239a43.6767,43.6767,0,0,0,30.7546,12.737c11.0371,0,20.6946-5.87,20.6946-16.7284,0-23.0088-55.5881-17.6088-55.5881-51.7112,0-18.8415,16.6132-29.348,35.2959-29.348a42.931,42.931,0,0,1,31.7892,11.7392L651.6746,217.23a35.9512,35.9512,0,0,0-25.8108-9.6848c-10.4623,0-20.5222,4.637-20.5222,16.3762,0,23.4784,55.5881,16.9632,55.5881,51.7112,0,17.198-14.5437,29.3481-35.2959,29.3481a51.9023,51.9023,0,0,1-38.1126-15.261Z"/></clipPath><clipPath id="clip-path-7"><rect class="cls-1" x="686.6227" y="198.1951" width="14.6817" height="106.8049"/></clipPath><clipPath id="clip-path-9"><path class="cls-1" d="M786.2538,292.1918A41.5439,41.5439,0,1,0,756.75,279.3642,41.4033,41.4033,0,0,0,786.2538,292.1918Zm0-97.6669a54.4982,54.4982,0,1,1-39.2766,15.6092A54.3155,54.3155,0,0,1,786.2538,194.5249Z"/></clipPath><clipPath id="clip-path-11"><path class="cls-1" d="M862.803,197.1125h14.0944v16.0568c0,4.7509-.4128,8.6-.4128,8.6h.4128a45,45,0,0,1,42.283-27.2425c26.1246,0,35.3832,15.2149,35.3832,42.0965V305h-14.33V240.2314c0-16.9589-2.5358-31.9934-22.94-31.9934a40.3685,40.3685,0,0,0-38.5088,30.49,55.1388,55.1388,0,0,0-1.6512,14.5534V305h-14.33Z"/></clipPath><clipPath id="clip-path-13"><path class="cls-1" d="M1031.4351,169.6539s-3.2014,12.4027-5.9285,19.5072l-19.86,54.7887h51.1627l-19.4454-54.7887C1034.8143,182.0566,1031.4351,169.6539,1031.4351,169.6539Zm29.998,87.18h-59.8183L984.6594,305H969.2453l54.542-151h15.6512L1094.04,305h-15.4734Z"/></clipPath><clipPath id="clip-path-15"><rect class="cls-1" x="1116.0623" y="198.1951" width="14.6817" height="106.8049"/></clipPath><clipPath id="clip-path-17"><path class="cls-1" d="M1163.778,195.61h13.639V214.939c0,4.8171-.397,8.72-.397,8.72h.397c4.8671-16.5244,16.128-29.1463,32.088-29.1463a25.4591,25.4591,0,0,1,5.6589.6707v14.5732a29.2648,29.2648,0,0,0-5.094-.4878c-14.3168,0-25.0129,12.1951-29.4838,28.2927a78.9444,78.9444,0,0,0-2.7731,21.3414V305h-13.752Z"/></clipPath><clipPath id="clip-path-19"><path class="cls-1" d="M1125.238,172.4146a9.2074,9.2074,0,1,0-9.1757-9.2073A9.1915,9.1915,0,0,0,1125.238,172.4146Z"/></clipPath><clipPath id="clip-path-21"><ellipse class="cls-1" cx="695.7987" cy="163.2073" rx="9.1761" ry="9.2073"/></clipPath><clipPath id="clip-path-23"><ellipse class="cls-1" cx="556.3226" cy="163.2073" rx="9.1761" ry="9.2073"/></clipPath><radialGradient id="radial-gradient" cx="-227.74" cy="-2611.5733" r="36.1176" gradientTransform="translate(597.6655 1486.1368) scale(1.7263 0.4498)" gradientUnits="userSpaceOnUse"><stop offset="0" stop-opacity="0.2"/><stop offset="0.2507" stop-opacity="0.19"/><stop offset="0.7236" stop-color="#fff" stop-opacity="0"/><stop offset="1" stop-color="#fff" stop-opacity="0"/></radialGradient><linearGradient id="linear-gradient" x1="-386.1843" y1="-16899.1049" x2="-293.4725" y2="-16963.0712" gradientTransform="matrix(-0.8674, 0.4613, -0.4579, -0.861, -7855.4082, -14190.6543)" gradientUnits="userSpaceOnUse"><stop offset="0.3921" stop-color="#96c"/><stop offset="1" stop-color="#5f259f"/></linearGradient><linearGradient id="linear-gradient-2" x1="284.7467" y1="253.9394" x2="319.7304" y2="240.8945" gradientTransform="matrix(1, 0, 0, 1, 0, 0)" xlink:href="#linear-gradient"/><linearGradient id="linear-gradient-3" x1="-504.3193" y1="-16948.6924" x2="-399.1709" y2="-16935.689" xlink:href="#linear-gradient"/><clipPath id="clip-path-25"><path class="cls-1" d="M2045.012,288.821l5.638-6.68a45.4633,45.4633,0,0,0,32.362,13.1516c12.736,0,24.0109-6.68,24.0109-19.623,0-26.512-57.4169-18.9968-57.4169-53.0239,0-18.5793,15.659-28.182,33.406-28.182,21.296,0,30.901,11.2728,30.901,11.2728l-5.22,7.0976s-8.56-9.8115-26.307-9.8115c-11.901,0-23.594,5.4277-23.594,18.9968,0,27.1382,57.417,18.9967,57.417,53.65,0,16.7-14.197,28.182-33.406,28.182C2057.54,303.8514,2045.012,288.821,2045.012,288.821ZM1931.64,301.3463V196.9685h8.7691v18.37a43.8114,43.8114,0,0,1-.8351,8.559h.4179c3.5491-9.8115,18.1641-29.4345,44.2631-29.4345,27.142,0,34.45,16.0741,34.45,40.7073v66.1755h-8.769V238.3021c0-18.1617-2.297-35.28-25.681-35.28-19.626,0-36.956,13.7779-42.175,33.1922a51.8987,51.8987,0,0,0-1.6709,14.1953v50.9364Zm-127.987-52.8152c0,26.512,20.043,46.7613,44.889,46.7613s44.89-20.2493,44.89-46.7613c0-25.8856-20.0441-45.5087-44.89-45.5087S1803.653,222.6455,1803.653,248.5311Zm-9.1871,0a54.0766,54.0766,0,0,1,108.1531,0c0,31.1046-24.22,55.32-54.077,55.32S1794.4659,279.6357,1794.4659,248.5311Zm-37.7909,52.8152V196.9685h8.769V301.3463Zm-62.2189-37.7848v-58.034h-13.78v-7.9327h13.78V167.9515h8.7689v29.6433h27.352v7.9327h-27.352v57.4078c0,27.5557,16.495,31.1045,24.846,31.1045a24.381,24.381,0,0,0,4.802-.4175v8.1415a29.3383,29.3383,0,0,1-5.2189.4175C1716.797,302.1813,1694.4561,298.215,1694.4561,263.5615Zm-126.1081-.4175V196.9685h8.7689v63.0442c0,18.1617,2.297,35.28,25.6811,35.28,26.099,0,42.802-22.9631,42.802-47.3875V196.9685h8.769V301.3463H1645.6v-18.37a43.8114,43.8114,0,0,1,.8351-8.559h-.4181c-3.549,9.8115-17.955,29.4346-43.219,29.4346C1577.1169,303.8514,1568.348,289.656,1568.348,263.144Zm-47.604,17.118V155.2174h8.7689V277.5482c0,14.6128,7.5171,16.2829,12.3191,16.2829a24.9077,24.9077,0,0,0,3.132-.2088v8.1415a19.8726,19.8726,0,0,1-3.759.4175C1535.151,302.1813,1520.744,299.885,1520.744,280.262Zm-126.943-31.7309c0,26.512,20.043,46.7613,44.8889,46.7613s44.89-20.2493,44.89-46.7613c0-25.8856-20.044-45.5087-44.89-45.5087S1393.801,222.6455,1393.801,248.5311Zm-9.187,0a54.0765,54.0765,0,0,1,108.153,0c0,31.1046-24.22,55.32-54.0771,55.32S1384.614,279.6357,1384.614,248.5311ZM1275,285.69l6.0551-6.8889s14.8239,16.2829,39.0429,16.2829c18.1649,0,32.5709-11.2728,32.5709-28.8082,0-41.5424-74.7459-30.0608-74.7459-75.7783,0-19.4143,17.329-37.7848,43.846-37.7848,23.802,0,37.164,13.5692,37.164,13.5692l-5.011,7.7239a48.5271,48.5271,0,0,0-31.9449-12.5253c-21.7142,0-34.6581,14.6129-34.6581,28.8082,0,38.62,74.7459,26.7208,74.7459,75.57,0,21.0844-16.2858,37.9936-42.3839,37.9936C1290.868,303.8514,1275,285.69,1275,285.69Z"/></clipPath><clipPath id="clip-path-26"><rect class="cls-1" x="-1" y="-2" width="2320" height="455"/></clipPath><clipPath id="clip-path-27"><path class="cls-2" d="M1760.238,169.4146a9.2074,9.2074,0,1,0-9.1757-9.2073A9.1915,9.1915,0,0,0,1760.238,169.4146Z"/></clipPath></defs><title>visionairSolutions_01</title><g class="cls-3"><g class="cls-4"><rect class="cls-5" x="399" y="149" width="134.7944" height="161"/></g></g><g class="cls-6"><g class="cls-4"><rect class="cls-5" x="542.1465" y="193.1951" width="24.6817" height="116.8049"/></g></g><g class="cls-7"><g class="cls-4"><rect class="cls-5" x="582.5212" y="189.5122" width="83.4085" height="120.4878"/></g></g><g class="cls-8"><g class="cls-4"><rect class="cls-5" x="681.6227" y="193.1951" width="24.6817" height="116.8049"/></g></g><g class="cls-9"><g class="cls-4"><rect class="cls-5" x="725.6678" y="189.5122" width="120.1127" height="120.4878"/></g></g><g class="cls-10"><g class="cls-4"><rect class="cls-5" x="857.803" y="189.5122" width="101.7606" height="120.4878"/></g></g><g class="cls-11"><g class="cls-4"><rect class="cls-5" x="964.2453" y="149" width="134.7945" height="161"/></g></g><g class="cls-12"><g class="cls-4"><rect class="cls-5" x="1111.0623" y="193.1951" width="24.6817" height="116.8049"/></g></g><g class="cls-13"><g class="cls-4"><rect class="cls-5" x="1158.778" y="189.5122" width="61.386" height="120.4878"/></g></g><g class="cls-14"><g class="cls-4"><rect class="cls-5" x="1111.0623" y="149" width="28.3517" height="28.4146"/></g></g><g class="cls-15"><g class="cls-4"><rect class="cls-5" x="681.6227" y="149" width="28.3521" height="28.4146"/></g></g><g class="cls-16"><g class="cls-4"><rect class="cls-5" x="542.1465" y="149" width="28.3522" height="28.4146"/></g></g><ellipse class="cls-17" cx="204.5293" cy="311.3745" rx="61.9546" ry="15.7872"/><path class="cls-18" d="M181.48,285.1539a24.9818,24.9818,0,0,0,33.3614,9.1452,25.2761,25.2761,0,0,0,9.8514-9.3817l.0943-.12,37.3353-63.3766L204.4716,221.4,183.6,183.0236c-1.9855-3.4425-14.0245-2.5781-26.1157,3.8733s-19.11,17.0108-17.376,20.5872l41.3494,77.6284Z"/><path class="cls-19" d="M291.2318,254.72c-1.3082-2.4682,5.2916-9.6,15.5071-15.05s20.1783-7.1563,21.4864-4.6881-5.6433,9.1819-15.8588,14.6326S292.54,257.1878,291.2318,254.72Z"/><path class="cls-20" d="M303.6917,235.3756c11.3709-6.0671,22.1211-8.4614,25.2154-5.8032l-41.1792-77.4076a25.0035,25.0035,0,0,0-33.3734-9.1679,25.2759,25.2759,0,0,0-9.8515,9.3815l-.0944.12-37.3353,63.3767,57.6364-.0092,19.9292,37.3164c-.4526-4.0626,7.5321-11.6594,18.8938-17.7216"/><g class="cls-21"><g class="cls-22"><rect class="cls-2" x="1270" y="147" width="851.209" height="161.8514"/></g></g><path class="cls-2" d="M1760.238,169.4146a9.2074,9.2074,0,1,0-9.1757-9.2073A9.1915,9.1915,0,0,0,1760.238,169.4146Z"/><g class="cls-23"><rect class="cls-2" x="635" y="-3" width="2320" height="455"/></g></svg>